<svg xmlns="http://www.w3.org/2000/svg" xmlns:xlink="http://www.w3.org/1999/xlink" viewBox="0 0 436 512"><defs><style>.cls-1{fill:url(#linear-gradient);}.cls-2{fill:url(#linear-gradient-2);}</style><linearGradient id="linear-gradient" x1="149.05" y1="187.06" x2="286.94" y2="324.96" gradientUnits="userSpaceOnUse"><stop offset="0" stop-color="#fff"/><stop offset="0.06" stop-color="#fdd8e7"/><stop offset="0.14" stop-color="#faadcb"/><stop offset="0.22" stop-color="#f786b3"/><stop offset="0.31" stop-color="#f5669f"/><stop offset="0.4" stop-color="#f44c8f"/><stop offset="0.51" stop-color="#f33782"/><stop offset="0.62" stop-color="#f22979"/><stop offset="0.76" stop-color="#f12174"/><stop offset="1" stop-color="#f11e72"/></linearGradient><linearGradient id="linear-gradient-2" x1="46.14" y1="55.99" x2="389.79" y2="399.63" xlink:href="#linear-gradient"/></defs><title>Asset 1</title><g id="Layer_2" data-name="Layer 2"><g id="Layer_1-2" data-name="Layer 1"><g id="surface1"><path class="cls-1" d="M218,158.46A97.55,97.55,0,1,0,315.55,256,97.66,97.66,0,0,0,218,158.46Zm57.91,79.18L206,307.52a15,15,0,0,1-21.25,0l-26.71-26.7a15,15,0,0,1,21.25-21.24l16.08,16.08,59.27-59.26a15,15,0,1,1,21.24,21.24Z"/><path class="cls-2" d="M435.49,138.92l0-.4c-.22-4.92-.37-10.12-.46-15.91a54.27,54.27,0,0,0-51.09-53.16C325.05,66.17,279.51,47,240.6,9l-.33-.31a32.76,32.76,0,0,0-44.53,0l-.33.31C156.5,47,111,66.17,52.09,69.45A54.26,54.26,0,0,0,1,122.61c-.09,5.75-.24,11-.47,15.91l0,.93C-.63,199.47-2,274.18,22.94,342c13.74,37.29,34.55,69.7,61.85,96.35,31.1,30.34,71.82,54.43,121.05,71.59a36.83,36.83,0,0,0,19.37,1.36,38.12,38.12,0,0,0,5-1.36c49.17-17.2,89.85-41.3,120.92-71.64,27.28-26.65,48.1-59.07,61.85-96.37C438.05,273.91,436.63,199.06,435.49,138.92ZM218,383.61A127.6,127.6,0,1,1,345.59,256,127.74,127.74,0,0,1,218,383.61Z"/></g></g></g></svg>