<svg xmlns="http://www.w3.org/2000/svg" xmlns:xlink="http://www.w3.org/1999/xlink" viewBox="0 0 413.88 512"><defs><style>.cls-1{fill:url(#linear-gradient);}</style><linearGradient id="linear-gradient" x1="1.13" y1="109.84" x2="311.8" y2="420.51" gradientUnits="userSpaceOnUse"><stop offset="0" stop-color="#fff"/><stop offset="0.06" stop-color="#fdd8e7"/><stop offset="0.14" stop-color="#faadcb"/><stop offset="0.22" stop-color="#f786b3"/><stop offset="0.31" stop-color="#f5669f"/><stop offset="0.4" stop-color="#f44c8f"/><stop offset="0.51" stop-color="#f33782"/><stop offset="0.62" stop-color="#f22979"/><stop offset="0.76" stop-color="#f12174"/><stop offset="1" stop-color="#f11e72"/></linearGradient></defs><title>Asset 1</title><g id="Layer_2" data-name="Layer 2"><g id="Layer_1-2" data-name="Layer 1"><g id="surface1"><path class="cls-1" d="M372.35,214.33a31.9,31.9,0,0,0-7.94,4.23c-12.55,9.24-36,34.47-36,34.47.72-.67-16.86,16.33-33,32A7.17,7.17,0,0,1,283.31,280V76.47c0-19.95-16.13-33.71-35.66-29.61-15.58,3.28-23.89,17.77-23.89,35.1l.14,153.63-23.75,0V27.73c0-19-15.28-31.53-33.69-26.68-12.63,3.32-18.55,15.21-18.55,30.2V235.93l-23.67,0-.14-166.3c0-16.62-7.83-31.28-24.44-31.77C82.39,37.4,74.08,51.88,74.08,69l-.24,167.22-23.15.05V126.69c0-17.26-8-30.31-25.39-30.31S0,109.43,0,126.69L0,370C8.68,495.12,79.4,512,153.33,512c61.25,0,110.25-30.38,137.38-78.95,3.49-5.63,12.93-20.48,24.12-38.06,15.92-25,30.36-47.37,40.5-63.22,13.36-20.91,25.6-37.24,40.73-56.9,4.21-5.46,7.7-9.87,9.36-11.69a32.92,32.92,0,0,0,8.46-17.85v-1.26C413.88,219.94,395,206.05,372.35,214.33Z"/></g></g></g></svg>